<?xml version="1.0" encoding="UTF-8"?>
<svg xmlns="http://www.w3.org/2000/svg" xmlns:xlink="http://www.w3.org/1999/xlink" viewBox="0 0 96 96" width="96px" height="96px">
<g id="surface1032742">
<path style=" stroke:none;fill-rule:nonzero;fill:rgb(100%,100%,100%);fill-opacity:1;" d="M 81.199219 21.140625 C 81.160156 21.101562 81.101562 21.058594 81.039062 21 C 76.261719 17.160156 69.859375 15.199219 65.339844 14.261719 C 60.878906 13.320312 56.421875 15.859375 54.980469 20.160156 C 54.960938 20.238281 54.921875 20.300781 54.898438 20.378906 C 62.398438 21.140625 69.101562 23.199219 74.539062 26.421875 C 75.960938 27.261719 76.421875 29.101562 75.578125 30.539062 C 75.019531 31.480469 74.019531 32 73 32 C 72.480469 32 71.941406 31.859375 71.460938 31.578125 C 65.339844 27.941406 57.21875 26.019531 48 26.019531 C 38.78125 26.019531 30.660156 27.941406 24.539062 31.578125 C 23.101562 32.421875 21.261719 31.960938 20.421875 30.539062 C 19.578125 29.101562 20.039062 27.261719 21.460938 26.421875 C 26.898438 23.199219 33.601562 21.140625 41.101562 20.378906 C 41.078125 20.300781 41.039062 20.238281 41.019531 20.160156 C 39.578125 15.859375 35.121094 13.320312 30.660156 14.261719 C 26.140625 15.199219 19.738281 17.160156 14.960938 21 C 14.898438 21.058594 14.839844 21.101562 14.800781 21.140625 C 10.359375 25.261719 2.160156 46.21875 2.160156 65.261719 C 2.160156 65.78125 2.28125 66.28125 2.539062 66.738281 C 7.421875 75.320312 18.921875 78.460938 23.660156 79.398438 C 24.238281 79.519531 24.820312 79.578125 25.398438 79.578125 C 28.238281 79.578125 30.980469 78.21875 32.679688 75.859375 L 33.71875 74.441406 C 23.421875 72 18.140625 67.601562 17.839844 67.339844 C 16.578125 66.261719 16.421875 64.378906 17.5 63.121094 C 18.578125 61.859375 20.460938 61.699219 21.71875 62.761719 C 21.878906 62.898438 30.699219 70.039062 48 70.039062 C 65.378906 70.039062 74.199219 62.839844 74.28125 62.761719 C 75.539062 61.699219 77.441406 61.859375 78.5 63.140625 C 79.558594 64.398438 79.421875 66.28125 78.160156 67.339844 C 77.859375 67.601562 72.578125 72 62.28125 74.441406 L 63.320312 75.859375 C 65.019531 78.21875 67.761719 79.578125 70.601562 79.578125 C 71.179688 79.578125 71.761719 79.519531 72.339844 79.398438 C 77.078125 78.460938 88.578125 75.320312 93.460938 66.738281 C 93.71875 66.28125 93.839844 65.78125 93.839844 65.261719 C 93.839844 46.21875 85.640625 25.261719 81.199219 21.140625 Z M 35.058594 59.839844 C 31.238281 59.839844 28.140625 56.300781 28.140625 51.921875 C 28.140625 47.539062 31.238281 44 35.058594 44 C 38.898438 44 42 47.539062 42 51.921875 C 42 56.300781 38.898438 59.839844 35.058594 59.839844 Z M 60.878906 60 C 57.019531 60 53.878906 56.421875 53.878906 52 C 53.878906 47.578125 57.019531 44 60.878906 44 C 64.761719 44 67.878906 47.578125 67.878906 52 C 67.878906 56.421875 64.761719 60 60.878906 60 Z M 60.878906 60 "/>
</g>
</svg>
