<svg width="96" height="96" xmlns="http://www.w3.org/2000/svg">

 <g>
  <title>Layer 1</title>
  <g id="surface1046182">
   <path id="svg_1" fill="rgb(100%,100%,100%)" fill-rule="nonzero" d="m26.94253,0.62069c-14.51299,0 -26.32184,11.80885 -26.32184,26.32184l0,42.11495c0,14.51299 11.80885,26.32184 26.32184,26.32184l42.11495,0c14.51299,0 26.32184,-11.80885 26.32184,-26.32184l0,-42.11495c0,-14.51299 -11.80885,-26.32184 -26.32184,-26.32184l-42.11495,0zm0,10.52874l42.11495,0c8.70883,0 15.7931,7.08427 15.7931,15.7931l0,42.11495c0,8.70883 -7.08427,15.7931 -15.7931,15.7931l-42.11495,0c-8.70883,0 -15.7931,-7.08427 -15.7931,-15.7931l0,-42.11495c0,-8.70883 7.08427,-15.7931 15.7931,-15.7931zm47.37931,5.26437c-2.9098,0 -5.26437,2.35457 -5.26437,5.26437c0,2.9098 2.35457,5.26437 5.26437,5.26437c2.9098,0 5.26437,-2.35457 5.26437,-5.26437c0,-2.9098 -2.35457,-5.26437 -5.26437,-5.26437zm-26.32184,5.26437c-14.51299,0 -26.32184,11.80885 -26.32184,26.32184c0,14.51299 11.80885,26.32184 26.32184,26.32184c14.51299,0 26.32184,-11.80885 26.32184,-26.32184c0,-14.51299 -11.80885,-26.32184 -26.32184,-26.32184zm0,10.52874c8.70883,0 15.7931,7.08427 15.7931,15.7931c0,8.70883 -7.08427,15.7931 -15.7931,15.7931c-8.70883,0 -15.7931,-7.08427 -15.7931,-15.7931c0,-8.70883 7.08427,-15.7931 15.7931,-15.7931zm0,0"/>
  </g>
 </g>
</svg>