<svg width="512" height="512" xmlns="http://www.w3.org/2000/svg" preserveAspectRatio="xMidYMid meet" version="1.0">

 <g>
  <title>Layer 1</title>
  <g id="svg_1" fill="#000000" transform="translate(0, 512) scale(0.1, -0.1)">
   <path fill="#ffffff" id="svg_2" d="m2652,5103c-18,-9 -43,-30 -55,-47l-22,-31l-5,-1730l-5,-1730l-23,-65c-67,-184 -210,-320 -398,-376c-84,-25 -219,-24 -309,4c-244,74 -406,289 -408,542c-1,168 51,291 172,411c109,108 200,149 370,168c88,10 117,24 155,75c20,27 21,39 21,474c0,416 -1,449 -18,477c-40,64 -57,70 -212,69c-266,-3 -560,-92 -804,-246c-323,-202 -583,-531 -701,-887c-172,-518 -92,-1060 222,-1506c81,-115 278,-312 393,-393c610,-430 1418,-412 2000,43c285,223 496,541 589,886c54,202 56,240 56,1098c0,435 2,791 4,791c1,0 47,-21 102,-46c133,-62 303,-118 454,-148c143,-29 389,-52 444,-42c48,9 103,58 116,104c6,22 10,201 10,452c0,411 0,416 -23,460c-32,64 -65,79 -199,90c-139,12 -235,38 -353,95c-247,119 -427,330 -509,595c-16,50 -32,138 -40,213c-14,141 -26,168 -87,199c-31,16 -74,18 -469,18c-380,0 -439,-2 -468,-17zm728,-288c0,-24 36,-175 57,-240c102,-317 344,-596 648,-748c91,-45 240,-94 335,-110l75,-13l3,-253l2,-254l-62,7c-262,30 -555,138 -773,286c-68,46 -88,54 -135,57c-70,5 -113,-20 -140,-80c-19,-40 -20,-77 -20,-977c0,-772 -3,-951 -15,-1025c-63,-388 -284,-729 -610,-940c-107,-70 -181,-107 -301,-148c-167,-58 -256,-72 -454,-71c-153,0 -189,4 -287,27c-548,128 -940,530 -1059,1087c-26,118 -26,391 -1,510c24,113 78,272 121,357c129,256 351,482 603,611c143,74 364,142 458,142l25,0l-2,-251l-3,-251l-71,-18c-309,-79 -551,-331 -630,-656c-25,-102 -22,-295 5,-399c72,-270 261,-488 515,-594c117,-49 196,-64 331,-64c130,0 211,15 324,60c221,88 406,275 492,497c61,157 59,95 59,1852l0,1604l255,0c140,0 255,-2 255,-5z"/>
  </g>
  <path id="svg_8" d="m194,202c1,0 2,63 2,63c0,0 -61,38 -60,38c1,0 -4,59 -4,59c0,0 33,51 33,51c0,0 49,-1 49,-1c0,0 38,-14 38,-14c0,0 10,-32 10,-32c0,0 5,-58 5,-58c0,0 3,-121 3,-121c0,0 1,-135 1,-135c0,0 10,-38 10,-38c0,0 52,3 52,3c0,0 23,13 23,13c0,0 16,50 16,50c0,0 24,23 24,23c0,0 35,18 35,18c0,0 30,14 30,14c0,0 1,42 1,42c0,0 -2,31 -2,31c0,0 -61,-11 -62,-11c-1,0 -41,-18 -41,-18c0,0 -5,16 -5,16c0,0 -2,71 -2,74c0,3 -2,99 -2,99c0,0 -23,54 -23,54c0,0 -34,40 -34,40c0,0 -49,24 -50,24c-1,0 -78,2 -78,2c0,0 -60,-28 -60,-28c0,0 -38,-46 -38,-46c0,0 -19,-50 -19,-50c0,0 4,-54 4,-54c0,0 32,-58 32,-58c0,0 41,-35 41,-35c0,0 35,-14 35,-14" opacity="NaN" fill="#ffffff"/>
 </g>
</svg>